<svg xmlns="http://www.w3.org/2000/svg" viewBox="0 0 256 256"><defs><style>.cls-1{fill:#741a00;}.cls-2{fill:#9f1f00;}</style></defs><g id="Layer_2" data-name="Layer 2"><g id="Layer_1-2" data-name="Layer 1"><path class="cls-1" d="M128,251A123,123,0,1,1,251,128,123.14,123.14,0,0,1,128,251Z"/><path class="cls-2" d="M128,10a118,118,0,0,1,83.44,201.44A118,118,0,0,1,44.56,44.56,117.22,117.22,0,0,1,128,10m0-10h0A128,128,0,0,0,0,128H0A128,128,0,0,0,128,256h0A128,128,0,0,0,256,128h0A128,128,0,0,0,128,0Z"/></g></g></svg>