<svg xmlns="http://www.w3.org/2000/svg" viewBox="0 0 289.41 256"><defs><style>.cls-1{fill:#e9a400;}.cls-2{fill:#bf7b00;}</style></defs><g id="Layer_2" data-name="Layer 2"><g id="Layer_1-2" data-name="Layer 1"><path class="cls-1" d="M82.36,251a15,15,0,0,1-13-7.51L7,135.51a15.08,15.08,0,0,1,0-15l62.35-108A15,15,0,0,1,82.36,5H207.05a15,15,0,0,1,13,7.51l62.35,108a15.08,15.08,0,0,1,0,15l-62.35,108a15,15,0,0,1-13,7.51Z"/><path class="cls-2" d="M207.05,10a10,10,0,0,1,8.67,5l62.35,108a10.07,10.07,0,0,1,0,10L215.72,241a10,10,0,0,1-8.67,5H82.36a10,10,0,0,1-8.67-5L11.34,133a10.07,10.07,0,0,1,0-10L73.69,15a10,10,0,0,1,8.67-5H207.05m0-10H82.36A20,20,0,0,0,65,10L2.68,118a20.05,20.05,0,0,0,0,20L65,246a20,20,0,0,0,17.33,10H207.05a20,20,0,0,0,17.33-10l62.35-108a20.05,20.05,0,0,0,0-20L224.38,10A20,20,0,0,0,207.05,0Z"/></g></g></svg>